<?xml version="1.0" encoding="UTF-8"?>
<svg id="a" data-name="Layer 1" xmlns="http://www.w3.org/2000/svg" viewBox="0 0 131 24.1">
  <defs>
    <style>
      .b {
        fill: #fff;
      }
    </style>
  </defs>
  <path class="b" d="M8.3,15.6L6.4,1.4l-1.9,14.2h3.8Zm.3,2.2H4.2l-.8,6.3H0L3.2,.1h6.5l3.2,24h-3.4l-.9-6.3h0Z"/>
  <path class="b" d="M18.5,2.3V11.4h4.4v2.2h-4.4v8.2h4.7v2.3H15V.1h8.2V2.3h-4.7Z"/>
  <path class="b" d="M31.1,11.4h-1.7V2.3h1.7c1,0,1.7,.8,1.7,1.7v5.6c.1,1.1-.7,1.8-1.7,1.8Zm6.1,12.7l-4.4-10.9c1.8,0,3.5-1.5,3.5-4V4.2c0-2.4-1.7-4.2-4.2-4.2h-6.2V24h3.5V13.2l4,10.9h3.8Z"/>
  <path class="b" d="M43,.1h-3.5V24.1h3.5V.1Z"/>
  <path class="b" d="M53.6,15.6l-1.9-14.2-1.9,14.2h3.8Zm.3,2.2h-4.4l-.9,6.3h-3.4L48.5,.1h6.5l3.2,24h-3.4l-.9-6.3h0Z"/>
  <path class="b" d="M68.2,21.9v2.2h-7.9V.1h3.5V21.9h4.4Z"/>
  <path class="b" d="M88.5,.1l-3.2,24h-6.5L75.6,.1h3.4l3.1,22.7L85.1,.1h3.4Z"/>
  <path class="b" d="M94.4,.1h-3.5V24.1h3.5V.1Z"/>
  <path class="b" d="M101.3,2.3V11.4h4.4v2.2h-4.4v8.2h4.7v2.3h-8.2V.1h8.2V2.3h-4.7Z"/>
  <path class="b" d="M131,.1l-2.9,24h-6.4l-2.2-21.3-2.3,21.3h-6.4L107.9,.1h3.5l2.6,22.5L116.4,.1h6.2l2.4,22.5L127.5,.1h3.5Z"/>
</svg>